PathFileType	4	(X/Y/Z)	Walk8.trc
DataRate	CameraRate	NumFrames	NumMarkers	Units	OrigDataRate	OrigDataStartFrame	OrigNumFrames
200.000000	200.000000	5	59	mm	200.000000	424	515
Frame#	Times		RFHD		RACR1		RUA1		RFA1		RWRR		LACR1		LFA1		LWRU		RTH1		LTH4		CLAV		RWRU		LTH2		LFHD		LUA1		RBack		RCAR		LTH3		RElbow		T10		LASI		C7		LTH1		LLFC		LWRR		LTB2		STRN		LMT1		LTB4		LBHD		RTB1		RTH4		LMMAL		LTB1		LElbowM		LCAL		LCAR		RTH2		RPSI		LElbow		RBHD		LTB3		RTH3		LMT5		RLFC		RElbowM		RTB2		RTB4		LPSI		RMT1		RTB3		LLMAL		RASI		RCAL		RLMAL		RToe		LToe		RMMAL		RMT5
			X1	Y1	Z1	X2	Y2	Z2	X3	Y3	Z3	X4	Y4	Z4	X5	Y5	Z5	X6	Y6	Z6	X7	Y7	Z7	X8	Y8	Z8	X9	Y9	Z9	X10	Y10	Z10	X11	Y11	Z11	X12	Y12	Z12	X13	Y13	Z13	X14	Y14	Z14	X15	Y15	Z15	X16	Y16	Z16	X17	Y17	Z17	X18	Y18	Z18	X19	Y19	Z19	X20	Y20	Z20	X21	Y21	Z21	X22	Y22	Z22	X23	Y23	Z23	X24	Y24	Z24	X25	Y25	Z25	X26	Y26	Z26	X27	Y27	Z27	X28	Y28	Z28	X29	Y29	Z29	X30	Y30	Z30	X31	Y31	Z31	X32	Y32	Z32	X33	Y33	Z33	X34	Y34	Z34	X35	Y35	Z35	X36	Y36	Z36	X37	Y37	Z37	X38	Y38	Z38	X39	Y39	Z39	X40	Y40	Z40	X41	Y41	Z41	X42	Y42	Z42	X43	Y43	Z43	X44	Y44	Z44	X45	Y45	Z45	X46	Y46	Z46	X47	Y47	Z47	X48	Y48	Z48	X49	Y49	Z49	X50	Y50	Z50	X51	Y51	Z51	X52	Y52	Z52	X53	Y53	Z53	X54	Y54	Z54	X55	Y55	Z55	X56	Y56	Z56	X57	Y57	Z57	X58	Y58	Z58	X59	Y59	Z59

424	2.12	362.28	1415.7	59.036	279.56	1212.2	177.81	301.84	1075.6	264.13	412.05	851.33	297.61	453.91	763.58	255.29	268.88	1203	-190.1	286.89	830.32	-312.14	269.86	721.55	-339.1	251.64	628.73	205.66	311.2	560.12	-192.02	348.75	1179.3	-2.147	423.89	749.98	319.42	358.58	582.67	-163.08	375.63	1426.3	-36.38	278.34	1036.3	-258.68	162.1	1141.8	119.5	485.99	713.11	304.38	330.97	479.25	-162.73	322.52	949.18	300.62	120.02	1060.9	12.722	325	814.27	-159.08	206.64	1261.6	-3.1469	291.63	641.83	-213.37	375.39	400.68	-125	318	719.62	-298.03	429.06	231.86	-117.32	401.31	1073.5	4.0605	620.19	121.61	-78.032	453.9	239.08	-61.051	250.18	1348.9	-72.4	191.99	277.08	73.253	230.36	548.86	181.46	481.63	94.974	-14.629	432.01	324.27	-63.766	203.92	899.97	-211.04	432.07	37.94	-38.847	308.56	673.54	-347.98	286.6	542.28	161.17	80.359	840.69	60.017	234.8	924.01	-277.26	233.02	1342.6	59.803	481.27	160.15	-60.882	213.26	468.69	150.34	550.59	62.908	-117.5	167.8	387.98	126.77	273.65	905.65	234.26	123.77	203.77	109.72	158.85	197.22	59.514	70.578	834.29	-44.238	174.92	28.88	11.656	130.92	118.02	45.953	458.31	69.51	-89.725	342.13	813.38	162.34	8.3482	50.854	29.724	68.244	67.745	77.856	232.07	28.86	50.716	589.76	99.449	-46.042	83.066	76.084	-4.7475	145.36	23.484	103.18
425	2.125	367.92	1414.8	58.526	285.16	1211.4	177.39	307.78	1074.9	263.82	418.07	850.84	297.64	460.02	763.13	255.35	274.71	1202	-190.5	292.42	829.36	-312.88	275.06	720.66	-339.97	256.52	628.35	205.86	316.6	558.7	-191.9	354.55	1178.4	-2.4564	430.08	749.57	319.54	363.93	581.12	-162.76	381.3	1425.4	-36.893	284.14	1035.3	-259.07	167.76	1140.9	119	492.2	712.77	304.47	336.2	477.79	-162.57	328.47	948.64	300.6	125.81	1059.9	12.237	331.16	812.75	-158.8	212.3	1260.6	-3.6662	297.19	640.47	-213.16	381.17	399.79	-124.58	323.43	718.57	-299.19	437.05	231.72	-116.85	407.25	1072.7	4.2514	629.77	123.15	-77.084	461.5	239.08	-60.428	255.89	1347.9	-72.891	194.41	276.73	73.375	234.61	548.54	181.67	490.73	95.161	-14.277	438.57	324.06	-63.008	210.01	898.89	-211.36	441.91	37.611	-38.855	313.67	672.67	-349.21	290.89	541.58	161.56	86.144	840.1	59.426	240.67	923.01	-277.61	238.69	1341.7	59.27	489.85	160.45	-60.332	216.95	468.56	150.57	560.64	63.921	-116.9	171.13	387.99	126.88	279.55	904.91	234.41	125.46	204.08	109.84	160.49	197.23	59.645	76.902	833.23	-44.945	174.94	28.912	11.682	131.76	118.31	46.095	468.08	69.62	-89.513	348.28	812.34	162.44	8.529	52.259	29.862	68.66	68.572	77.988	232.09	28.82	50.705	599.11	100.87	-45.246	83.49	76.847	-4.6299	145.39	23.491	103.08
426	2.13	373.57	1413.9	57.993	290.76	1210.5	176.93	313.71	1074.2	263.47	424.04	850.34	297.66	466.06	762.64	255.44	280.55	1200.9	-190.94	298.04	828.37	-313.61	280.38	719.73	-340.82	261.49	627.99	206.09	322.15	557.4	-191.76	360.36	1177.5	-2.8045	436.18	749.14	319.67	369.43	579.77	-162.43	386.98	1424.5	-37.427	289.93	1034.3	-259.51	173.43	1139.9	118.44	498.33	712.4	304.59	341.67	476.47	-162.39	334.39	948.1	300.54	131.62	1058.8	11.706	337.32	811.19	-158.55	217.97	1259.6	-4.2353	302.81	639.22	-212.93	387.12	398.97	-124.15	328.97	717.49	-300.3	444.7	231.45	-116.32	413.2	1071.8	4.3931	638.63	124	-75.923	468.77	238.91	-59.747	261.62	1347	-73.416	196.93	276.38	73.509	238.97	548.25	181.9	499.03	95.127	-13.815	445.06	323.7	-62.233	216.15	897.79	-211.68	450.78	37.268	-38.79	318.89	671.75	-350.37	295.29	540.89	162.01	91.945	839.53	58.813	246.61	921.97	-277.97	244.37	1340.7	58.7	497.85	160.51	-59.683	220.76	468.43	150.85	569.79	64.487	-116.14	174.6	387.99	127.04	285.41	904.16	234.53	127.24	204.4	109.98	162.2	197.24	59.803	83.269	832.19	-45.666	174.95	28.951	11.713	132.64	118.62	46.265	476.99	69.585	-89.2	354.4	811.38	162.59	8.7302	53.744	30.069	69.105	69.447	78.161	232.11	28.79	50.686	607.62	101.72	-44.257	83.925	77.666	-4.474	145.43	23.494	103.01
427	2.135	379.23	1413	57.437	296.36	1209.7	176.42	319.64	1073.5	263.08	429.95	849.82	297.66	472.04	762.13	255.54	286.41	1199.9	-191.44	303.75	827.35	-314.33	285.82	718.77	-341.63	266.55	627.64	206.33	327.88	556.24	-191.59	366.18	1176.5	-3.1927	442.2	748.69	319.82	375.08	578.6	-162.1	392.67	1423.6	-37.982	295.71	1033.3	-260.01	179.1	1138.9	117.83	504.36	712	304.76	347.4	475.32	-162.16	340.28	947.56	300.45	137.46	1057.8	11.131	343.51	809.62	-158.32	223.66	1258.5	-4.8553	308.52	638.06	-212.69	393.25	398.21	-123.73	334.61	716.39	-301.36	452	231.05	-115.75	419.15	1070.9	4.4804	646.78	124.12	-74.569	475.7	238.55	-59.015	267.36	1346	-73.977	199.55	276	73.659	243.44	547.96	182.16	506.53	94.857	-13.253	451.48	323.2	-61.448	222.35	896.67	-212.03	458.71	36.9	-38.653	324.22	670.78	-351.47	299.8	540.21	162.51	97.765	838.98	58.185	252.6	920.91	-278.35	250.05	1339.8	58.093	505.28	160.32	-58.942	224.72	468.31	151.17	578.06	64.581	-115.22	178.23	387.98	127.24	291.2	903.42	234.62	129.12	204.72	110.17	163.99	197.26	59.99	89.675	831.19	-46.391	174.95	28.996	11.749	133.56	118.97	46.464	485.06	69.392	-88.79	360.49	810.52	162.78	8.958	55.317	30.349	69.583	70.376	78.375	232.13	28.768	50.659	615.32	101.97	-43.093	84.374	78.547	-4.2777	145.49	23.492	102.95
428	2.14	384.89	1412.1	56.86	301.96	1208.8	175.87	325.54	1072.8	262.64	435.79	849.29	297.65	477.95	761.58	255.66	292.28	1198.8	-191.99	309.56	826.31	-315.03	291.37	717.78	-342.41	271.71	627.3	206.59	333.79	555.21	-191.38	372.03	1175.7	-3.6225	448.11	748.23	319.98	380.9	577.64	-161.75	398.37	1422.7	-38.557	301.5	1032.2	-260.56	184.78	1138	117.16	510.3	711.58	304.96	353.4	474.34	-161.9	346.13	947.03	300.32	143.32	1056.8	10.514	349.7	808.04	-158.14	229.35	1257.5	-5.5264	314.31	637.02	-212.44	399.53	397.51	-123.32	340.34	715.27	-302.37	458.97	230.51	-115.12	425.11	1070.1	4.5086	654.27	123.5	-73.048	482.31	238.01	-58.239	273.11	1345.1	-74.576	202.29	275.6	73.832	248.04	547.68	182.43	513.27	94.348	-12.601	457.84	322.56	-60.657	228.62	895.54	-212.38	465.7	36.509	-38.452	329.67	669.76	-352.5	304.45	539.55	163.05	103.61	838.45	57.548	258.65	919.83	-278.75	255.73	1338.9	57.447	512.17	159.9	-58.12	228.84	468.18	151.53	585.47	64.192	-114.18	182.04	387.94	127.48	296.95	902.68	234.67	131.1	205.05	110.39	165.86	197.28	60.21	96.113	830.23	-47.109	174.95	29.05	11.792	134.53	119.34	46.693	492.32	69.036	-88.292	366.55	809.76	163.01	9.2199	56.991	30.701	70.097	71.363	78.631	232.15	28.752	50.625	622.24	101.62	-41.782	84.845	79.495	-4.0392	145.56	23.486	102.93
